<?xml version="1.0" encoding="UTF-8" standalone="no"?>
<svg
   width="16"
   height="16"
   viewBox="0 0 16 16"
   fill="none"
   version="1.1"
   id="svg56"
   sodipodi:docname="file-symlink-file-g.svg"
   inkscape:version="1.2 (dc2aeda, 2022-05-15)"
   xmlns:inkscape="http://www.inkscape.org/namespaces/inkscape"
   xmlns:sodipodi="http://sodipodi.sourceforge.net/DTD/sodipodi-0.dtd"
   xmlns="http://www.w3.org/2000/svg"
   xmlns:svg="http://www.w3.org/2000/svg">
  <defs
     id="defs60" />
  <sodipodi:namedview
     id="namedview58"
     pagecolor="#ffffff"
     bordercolor="#000000"
     borderopacity="0.25"
     inkscape:showpageshadow="2"
     inkscape:pageopacity="0.0"
     inkscape:pagecheckerboard="0"
     inkscape:deskcolor="#d1d1d1"
     showgrid="false"
     inkscape:zoom="50.5"
     inkscape:cx="8"
     inkscape:cy="8.009901"
     inkscape:window-width="1920"
     inkscape:window-height="1009"
     inkscape:window-x="0"
     inkscape:window-y="34"
     inkscape:window-maximized="1"
     inkscape:current-layer="svg56" />
  <path
     fill-rule="evenodd"
     clip-rule="evenodd"
     d="M10.57 1.14L13.85 4.44L14 4.8V14.5L13.5 15H10V14H13V6H9.5L9 5.5V2H3V6H2V1.5L2.5 1H10.22L10.57 1.14ZM10 5H13L10 2V5ZM8.5 7H1.5L1 7.5V14.5L1.5 15H8.5L9 14.5V7.5L8.5 7ZM8 14H2V8H8V14ZM7 9.5V12.5H6V10.707L3.354 13.354L2.646 12.646L5.293 10H3.53V9H6.5L7 9.5Z"
     fill="#C5C5C5"
     id="path54"
     style="fill:#6699ff" />
</svg>
