<?xml version="1.0" encoding="UTF-8" standalone="no"?>
<svg
   width="16"
   height="16"
   viewBox="0 0 16 16"
   fill="none"
   version="1.1"
   id="svg36"
   sodipodi:docname="file-submodule-g.svg"
   inkscape:version="1.2 (dc2aeda, 2022-05-15)"
   xmlns:inkscape="http://www.inkscape.org/namespaces/inkscape"
   xmlns:sodipodi="http://sodipodi.sourceforge.net/DTD/sodipodi-0.dtd"
   xmlns="http://www.w3.org/2000/svg"
   xmlns:svg="http://www.w3.org/2000/svg">
  <defs
     id="defs40" />
  <sodipodi:namedview
     id="namedview38"
     pagecolor="#ffffff"
     bordercolor="#000000"
     borderopacity="0.25"
     inkscape:showpageshadow="2"
     inkscape:pageopacity="0.0"
     inkscape:pagecheckerboard="0"
     inkscape:deskcolor="#d1d1d1"
     showgrid="false"
     inkscape:zoom="50.5"
     inkscape:cx="8"
     inkscape:cy="8.009901"
     inkscape:window-width="1920"
     inkscape:window-height="1009"
     inkscape:window-x="0"
     inkscape:window-y="34"
     inkscape:window-maximized="1"
     inkscape:current-layer="svg36" />
  <path
     fill-rule="evenodd"
     clip-rule="evenodd"
     d="M2 11H3V6.99H2V11ZM3 5.99V5.5L3.5 5H7.93L8.36 5.25L8.79 6H13H14.5L15 6.5V14.5L14.5 15H3.5L3 14.5V12H1.5L1 11.5V2.5L1.5 2H5.92L6.36 2.25L6.79 3H12.5L13 3.5V6L12 5.97V4H6.5L6.07 3.75L5.64 3H2V5.99H3ZM8.07 6.75L7.64 6H4V9H7.15L7.56 8.26L8 8H14V7H8.5L8.07 6.75ZM7.45 10H4V14H14V9H8.3L7.89 9.74L7.45 10Z"
     fill="#C5C5C5"
     id="path34"
     style="fill:#cc0000" />
</svg>
