<?xml version="1.0" encoding="UTF-8" standalone="no"?>
<svg
   width="16"
   height="16"
   viewBox="0 0 16 16"
   fill="none"
   version="1.1"
   id="svg36"
   sodipodi:docname="sign-in-g.svg"
   inkscape:version="1.2 (dc2aeda, 2022-05-15)"
   xmlns:inkscape="http://www.inkscape.org/namespaces/inkscape"
   xmlns:sodipodi="http://sodipodi.sourceforge.net/DTD/sodipodi-0.dtd"
   xmlns="http://www.w3.org/2000/svg"
   xmlns:svg="http://www.w3.org/2000/svg">
  <defs
     id="defs40" />
  <sodipodi:namedview
     id="namedview38"
     pagecolor="#ffffff"
     bordercolor="#000000"
     borderopacity="0.25"
     inkscape:showpageshadow="2"
     inkscape:pageopacity="0.0"
     inkscape:pagecheckerboard="0"
     inkscape:deskcolor="#d1d1d1"
     showgrid="false"
     inkscape:zoom="50.5"
     inkscape:cx="8"
     inkscape:cy="8.009901"
     inkscape:window-width="1920"
     inkscape:window-height="1009"
     inkscape:window-x="0"
     inkscape:window-y="34"
     inkscape:window-maximized="1"
     inkscape:current-layer="svg36" />
  <path
     fill-rule="evenodd"
     clip-rule="evenodd"
     d="M11.02 3.77L11.03 3.76L12.02 4.75V2.5L11.52 2H2.52001L2.01001 2.5V2.99301L2 3.00003V13.29L2.36 13.75L7.36 15.47L8 15V14H11.52L12.02 13.5V11.25L11.02 12.25V13H8V4.71003L7.67 4.25003L4.03619 3H7.01001H11.02V3.77ZM7 14.28L3 12.94V3.72003L7 5.06003V14.28ZM10.09 7.53005H15.06V8.53005H10.13L11.72 10.1301L11.01 10.8301L8.53998 8.37005V7.66005L11.03 5.18005L11.73 5.88005L10.09 7.53005Z"
     fill="#C5C5C5"
     id="path34"
     style="fill:#ff6600" />
</svg>
