<?xml version="1.0" encoding="UTF-8" standalone="no"?>
<svg
   width="16"
   height="16"
   viewBox="0 0 16 16"
   fill="none"
   version="1.1"
   id="svg36"
   sodipodi:docname="sign-out-g.svg"
   inkscape:version="1.2 (dc2aeda, 2022-05-15)"
   xmlns:inkscape="http://www.inkscape.org/namespaces/inkscape"
   xmlns:sodipodi="http://sodipodi.sourceforge.net/DTD/sodipodi-0.dtd"
   xmlns="http://www.w3.org/2000/svg"
   xmlns:svg="http://www.w3.org/2000/svg">
  <defs
     id="defs40" />
  <sodipodi:namedview
     id="namedview38"
     pagecolor="#ffffff"
     bordercolor="#000000"
     borderopacity="0.25"
     inkscape:showpageshadow="2"
     inkscape:pageopacity="0.0"
     inkscape:pagecheckerboard="0"
     inkscape:deskcolor="#d1d1d1"
     showgrid="false"
     inkscape:zoom="50.5"
     inkscape:cx="8"
     inkscape:cy="8.009901"
     inkscape:window-width="1920"
     inkscape:window-height="1009"
     inkscape:window-x="0"
     inkscape:window-y="34"
     inkscape:window-maximized="1"
     inkscape:current-layer="svg36" />
  <path
     fill-rule="evenodd"
     clip-rule="evenodd"
     d="M11.02 3.77V5.33L12.02 4.34V2.5L11.52 2H2.52002L2.02002 2.5V2.98599L2 3.00003V13.29L2.36 13.75L7.36 15.47L8 15V13.9999H11.52L12.02 13.4999V12.9999V11.6899L11.02 10.6899V12.9999H8V4.71003L7.67 4.25003L4.03619 3H7.02002H11.02V3.77ZM7 14.28L3 12.94V3.72003L7 5.06003V14.28ZM13.52 8.48005H8.54999V7.48005H13.48L11.88 5.88005L12.59 5.18005L15.06 7.64005V8.35005L12.57 10.8301L11.87 10.1301L13.52 8.48005Z"
     fill="#C5C5C5"
     id="path34"
     style="fill:#00cc00" />
</svg>
