<?xml version="1.0" encoding="UTF-8" standalone="no"?>
<svg
   width="16"
   height="16"
   viewBox="0 0 16 16"
   fill="none"
   version="1.1"
   id="svg254"
   sodipodi:docname="file-symlink-file-g.svg"
   inkscape:version="1.2 (dc2aeda, 2022-05-15)"
   xmlns:inkscape="http://www.inkscape.org/namespaces/inkscape"
   xmlns:sodipodi="http://sodipodi.sourceforge.net/DTD/sodipodi-0.dtd"
   xmlns="http://www.w3.org/2000/svg"
   xmlns:svg="http://www.w3.org/2000/svg">
  <defs
     id="defs258" />
  <sodipodi:namedview
     id="namedview256"
     pagecolor="#ffffff"
     bordercolor="#000000"
     borderopacity="0.25"
     inkscape:showpageshadow="2"
     inkscape:pageopacity="0.0"
     inkscape:pagecheckerboard="0"
     inkscape:deskcolor="#d1d1d1"
     showgrid="false"
     inkscape:zoom="48.1875"
     inkscape:cx="7.9896239"
     inkscape:cy="8"
     inkscape:window-width="1920"
     inkscape:window-height="1009"
     inkscape:window-x="0"
     inkscape:window-y="34"
     inkscape:window-maximized="1"
     inkscape:current-layer="svg254" />
  <path
     fill-rule="evenodd"
     clip-rule="evenodd"
     d="m 10.651729,1.009318 3.28,3.3 0.15,0.36 v 9.7 l -0.5,0.5 h -3.5 v -1 h 3 v -8 H 9.5817285 l -0.5,-0.5 v -3.5 h -6 v 4 h -1 v -4.5 l 0.5,-0.50000005 h 7.7200005 z m -0.57,3.86 h 3 l -3,-3 z m -1.5000005,2 h -7 l -0.5,0.5 v 7 l 0.5,0.5 h 7 l 0.5,-0.5 v -7 z m -0.5,7 h -6 v -6 h 6 z m -1,-4.5 v 3 h -1 v -1.793 l -2.646,2.647 -0.708,-0.708 2.647,-2.646 h -1.763 v -1 h 2.97 z"
     fill="#c5c5c5"
     id="path252"
     style="fill:#ffcc00" />
</svg>
